#Comment line ignore any data following # character 
#Hierarchical Translation and Rotation (.htr) file 
[Header]	
#Header keywords are followed by a single value 
FileType HTR		#Single word string
DataType HTRS		#Translation followed by rotation and scale data
FileVersion 1		#integer
NumSegments 25		#integer
NumFrames 4		#integer
DataFrameRate 30		#integer, data frame rate in this file
EulerRotationOrder ZYX
CalibrationUnits mm
RotationUnits Degrees
GlobalAxisofGravity Y
BoneLengthAxis Y
ScaleFactor 1.00
[SegmentNames&Hierarchy]
#CHILD	PARENT
BN_Tick_Root GLOBAL
BN_Torso BN_Tick_Root
BN_L_Leg_Front01 BN_Torso
BN_L_Leg_Rear01 BN_Torso
BN_MetalTop BN_Torso
BN_Neck BN_Torso
BN_R_Leg_Front01 BN_Torso
BN_R_Leg_Rear01 BN_Torso
BN_Sack BN_Torso
BN_L_Leg_Front02 BN_L_Leg_Front01
BN_L_Leg_Front03 BN_L_Leg_Front02
BN_L_Leg_Rear02 BN_L_Leg_Rear01
BN_L_Leg_Rear03 BN_L_Leg_Rear02
BN_Head BN_Neck
BN_Needle BN_Head
BN_R_Leg_Front02 BN_R_Leg_Front01
BN_R_Leg_Front03 BN_R_Leg_Front02
BN_R_Leg_Rear02 BN_R_Leg_Rear01
BN_R_Leg_Rear03 BN_R_Leg_Rear02
BN_SackDef01 BN_Sack
BN_SackDef02 BN_Sack
BN_SackDef03 BN_Sack
BN_SackDef04 BN_Sack
BN_SackDef05 BN_Sack
BN_SackDef06 BN_Sack
[BasePosition]
#SegmentName Tx, Ty, Tz, Rx, Ry, Rz, BoneLength
BN_Tick_Root 0.000000 0.000000 0.000000 -90.000000 0.000000 0.000000 10.000000 
BN_Torso 0.000000 0.000000 0.000000 0.000000 0.000000 0.000000 10.000000 
BN_L_Leg_Front01 0.000000 0.000000 0.000000 0.000000 0.000000 0.000000 10.000000 
BN_L_Leg_Rear01 0.000000 0.000000 0.000000 0.000000 0.000000 0.000000 10.000000 
BN_MetalTop 0.000000 0.000000 0.000000 0.000000 0.000000 0.000000 10.000000 
BN_Neck 0.000000 0.000000 0.000000 0.000000 0.000000 0.000000 10.000000 
BN_R_Leg_Front01 0.000000 0.000000 0.000000 0.000000 0.000000 0.000000 10.000000 
BN_R_Leg_Rear01 0.000000 0.000000 0.000000 0.000000 0.000000 0.000000 10.000000 
BN_Sack 0.000000 0.000000 0.000000 0.000000 0.000000 0.000000 10.000000 
BN_L_Leg_Front02 0.000000 0.000000 0.000000 0.000000 0.000000 0.000000 10.000000 
BN_L_Leg_Front03 0.000000 0.000000 0.000000 0.000000 0.000000 0.000000 10.000000 
BN_L_Leg_Rear02 0.000000 0.000000 0.000000 0.000000 0.000000 0.000000 10.000000 
BN_L_Leg_Rear03 0.000000 0.000000 0.000000 0.000000 0.000000 0.000000 10.000000 
BN_Head 0.000000 0.000000 0.000000 0.000000 0.000000 0.000000 10.000000 
BN_Needle 0.000000 0.000000 0.000000 0.000000 0.000000 0.000000 10.000000 
BN_R_Leg_Front02 0.000000 0.000000 0.000000 0.000000 0.000000 0.000000 10.000000 
BN_R_Leg_Front03 0.000000 0.000000 0.000000 0.000000 0.000000 0.000000 10.000000 
BN_R_Leg_Rear02 0.000000 0.000000 0.000000 0.000000 0.000000 0.000000 10.000000 
BN_R_Leg_Rear03 0.000000 0.000000 0.000000 0.000000 0.000000 0.000000 10.000000 
BN_SackDef01 0.000000 0.000000 0.000000 0.000000 0.000000 0.000000 10.000000 
BN_SackDef02 0.000000 0.000000 0.000000 0.000000 0.000000 0.000000 10.000000 
BN_SackDef03 0.000000 0.000000 0.000000 0.000000 0.000000 0.000000 10.000000 
BN_SackDef04 0.000000 0.000000 0.000000 0.000000 0.000000 0.000000 10.000000 
BN_SackDef05 0.000000 0.000000 0.000000 0.000000 0.000000 0.000000 10.000000 
BN_SackDef06 0.000000 0.000000 0.000000 0.000000 0.000000 0.000000 10.000000 
#Beginning of Data. Separated by tabs
#Fr	Tx	Ty	Tz	Rx	Ry	Rz	SF
[BN_Tick_Root]
65 0.000000 0.000000 0.000000 0.000000 0.000000 -0.000020 0.000000
66 0.000000 0.000000 0.000000 0.000000 0.000000 -0.000020 0.000000
67 0.000000 0.000000 0.000000 0.000000 0.000000 -0.000020 0.000000
68 0.000000 0.000000 0.000000 0.000000 0.000000 -0.000020 0.000000
[BN_Torso]
65 10.115689 21.104683 202.956985 -18.079258 -3.382290 4.744791 204.301910
66 10.068864 26.457962 204.838821 -20.883913 -3.387413 4.816933 206.785767
67 10.022041 31.810827 206.720535 -23.683310 -3.389006 4.889104 209.393768
68 10.022041 31.810827 206.720535 -23.099714 -3.390053 4.889709 209.393768
[BN_L_Leg_Front01]
65 -68.477791 10.734189 -26.804373 -64.444992 34.300739 131.407547 74.316254
66 -68.477791 10.734189 -26.804373 -66.790878 32.861095 130.610870 74.316254
67 -68.477791 10.734189 -26.804373 -69.041115 31.397120 129.751938 74.316254
68 -68.477791 10.734189 -26.804373 -68.616203 31.880560 130.011353 74.316254
[BN_L_Leg_Rear01]
65 -72.133743 -73.994843 -18.268616 29.926897 59.338470 -167.502136 104.939293
66 -72.133743 -73.994843 -18.268616 24.118406 60.273571 -171.789871 104.939293
67 -72.133743 -73.994843 -18.268616 18.125843 60.970989 -176.452255 104.939293
68 -72.133743 -73.994843 -18.268616 19.467543 60.858818 -175.276230 104.939293
[BN_MetalTop]
65 0.000008 13.737477 26.403606 92.251923 -17.594034 -97.417038 29.763546
66 0.000008 13.737477 26.403606 92.251823 -17.592640 -97.417191 29.763546
67 0.000008 13.737477 26.403606 92.251740 -17.591255 -97.417343 29.763546
68 0.000008 13.737477 26.403606 92.251640 -17.589869 -97.417496 29.763546
[BN_Neck]
65 0.000014 95.233284 10.002091 -89.999672 -65.297531 89.999657 95.757088
66 0.000014 95.233284 10.002091 -89.999672 -65.297531 89.999657 95.757088
67 0.000014 95.233284 10.002091 -89.999672 -65.297531 89.999657 95.757088
68 0.000014 95.233284 10.002091 -89.999672 -65.297531 89.999657 95.757088
[BN_R_Leg_Front01]
65 68.477768 10.734107 -26.804314 72.331665 44.347839 51.539909 74.316193
66 68.477768 10.734107 -26.804314 74.984474 43.004772 52.820595 74.316193
67 68.477768 10.734107 -26.804314 77.547615 41.626728 54.122128 74.316193
68 68.477768 10.734107 -26.804314 77.109413 42.142658 53.785324 74.316193
[BN_R_Leg_Rear01]
65 72.133751 -73.994873 -18.268644 13.376600 77.153160 27.620228 104.939331
66 72.133751 -73.994873 -18.268644 23.599905 76.169456 36.034863 104.939331
67 72.133751 -73.994873 -18.268644 32.535625 74.889771 43.371380 104.939331
68 72.133751 -73.994873 -18.268644 30.605600 75.293571 41.504162 104.939331
[BN_Sack]
65 -0.000000 -78.024918 33.657791 91.379875 -11.014523 -97.199577 84.974907
66 -0.000000 -78.024918 33.657791 91.379875 -11.014523 -97.199577 84.974907
67 -0.000000 -78.024918 33.657791 91.379875 -11.014524 -97.199577 84.974907
68 -0.000000 -78.024918 33.657791 91.379875 -11.014523 -97.199577 84.974907
[BN_L_Leg_Front02]
65 142.805023 -0.000015 -0.000104 0.121908 0.500025 -112.217049 142.805023
66 142.805023 -0.000015 -0.000104 0.118500 0.506900 -112.913979 142.805023
67 142.805023 -0.000015 -0.000104 0.119487 0.511432 -113.305130 142.805023
68 142.805023 -0.000015 -0.000104 0.119078 0.511528 -113.396805 142.805023
[BN_L_Leg_Front03]
65 124.143021 -0.000045 0.000007 0.353142 -0.384529 120.972252 124.143021
66 124.143021 -0.000045 0.000007 0.351919 -0.383140 121.617294 124.143021
67 124.143021 -0.000045 0.000007 0.355050 -0.381835 121.973862 124.143021
68 124.143021 -0.000045 0.000007 0.354173 -0.381012 122.057220 124.143021
[BN_L_Leg_Rear02]
65 139.939041 0.000075 -0.000022 0.068119 -0.242623 99.536316 139.939041
66 139.939041 0.000075 -0.000022 0.078937 -0.242937 96.831383 139.939041
67 139.939041 0.000075 -0.000022 0.084727 -0.227189 94.341087 139.939041
68 139.939041 0.000075 -0.000022 0.085094 -0.229995 94.544411 139.939041
[BN_L_Leg_Rear03]
65 142.839615 0.000179 -0.000060 0.000581 -0.002274 -118.666618 142.839615
66 142.839615 0.000179 -0.000060 0.000524 -0.002289 -115.796761 142.839615
67 142.839615 0.000179 -0.000060 0.000466 -0.002300 -112.927139 142.839615
68 142.839615 0.000179 -0.000060 0.000471 -0.002299 -113.159416 142.839615
[BN_Head]
65 57.062447 -0.000030 0.000000 -1.620818 8.587667 -10.494184 57.062447
66 57.062447 -0.000030 0.000000 -1.594513 8.655286 -12.758798 57.062447
67 57.062447 -0.000030 0.000000 -1.570940 8.723820 -15.021767 57.062447
68 57.062447 -0.000030 0.000000 -1.492264 8.745286 -13.914129 57.062447
[BN_Needle]
65 34.757515 92.613594 -0.000058 0.000003 0.000030 87.896805 98.920990
66 34.622917 88.948250 -0.000056 0.000003 0.000030 87.896805 95.449135
67 34.488323 85.282944 -0.000054 0.000003 0.000030 87.896805 91.992523
68 34.353729 81.617638 -0.000052 0.000003 0.000030 87.896805 88.552910
[BN_R_Leg_Front02]
65 142.804947 -0.000060 0.000060 -0.075662 0.606953 121.782066 142.804947
66 142.804947 -0.000060 0.000060 -0.071829 0.607419 122.505386 142.804947
67 142.804947 -0.000060 0.000060 -0.067456 0.614403 122.956154 142.804947
68 142.804947 -0.000060 0.000060 -0.067570 0.615542 123.044724 142.804947
[BN_R_Leg_Front03]
65 124.143005 -0.000060 -0.000156 -0.354617 -0.348304 -129.323029 124.143005
66 124.143005 -0.000060 -0.000156 -0.355221 -0.343536 -129.907867 124.143005
67 124.143005 -0.000060 -0.000156 -0.354124 -0.344667 -130.273315 124.143005
68 124.143005 -0.000060 -0.000156 -0.353391 -0.343763 -130.344162 124.143005
[BN_R_Leg_Rear02]
65 139.939011 -0.000149 0.000015 0.029500 -0.265429 -126.871078 139.939011
66 139.939011 -0.000149 0.000015 0.013537 -0.268272 -122.881973 139.939011
67 139.939011 -0.000149 0.000015 -0.000245 -0.248264 -119.263725 139.939011
68 139.939011 -0.000149 0.000015 0.000976 -0.249958 -119.620697 139.939011
[BN_R_Leg_Rear03]
65 142.839417 0.000075 0.000119 0.002107 -0.001038 142.472183 142.839417
66 142.839417 0.000075 0.000119 0.002131 -0.000987 139.693970 142.839417
67 142.839417 0.000075 0.000119 0.002153 -0.000934 136.917603 142.839417
68 142.839417 0.000075 0.000119 0.002151 -0.000940 137.192245 142.839417
[BN_SackDef01]
65 249.964386 -3.766916 42.981102 -128.408218 -44.374973 -11.740845 253.660721
66 249.934052 -3.765871 42.975834 -128.408218 -44.374973 -11.740845 253.629913
67 249.903702 -3.764825 42.970566 -128.408218 -44.374973 -11.740845 253.599106
68 249.873367 -3.763780 42.965298 -128.408218 -44.374973 -11.740845 253.568314
[BN_SackDef02]
65 138.789810 -62.131634 45.674427 32.077126 -27.375721 -88.781525 158.773758
66 138.789810 -62.131634 45.674427 32.077126 -27.375721 -88.781525 158.773758
67 138.789810 -62.131634 45.674427 32.077126 -27.375721 -88.781525 158.773758
68 138.789810 -62.131634 45.674427 32.077126 -27.375721 -88.781525 158.773758
[BN_SackDef03]
65 249.964325 -3.766896 -42.981213 18.144459 44.375008 -11.740894 253.660675
66 249.933990 -3.765853 -42.975948 18.144459 44.375008 -11.740894 253.629868
67 249.903656 -3.764811 -42.970684 18.144459 44.375008 -11.740894 253.599075
68 249.873306 -3.763769 -42.965420 18.144459 44.375008 -11.740894 253.568268
[BN_SackDef04]
65 138.789810 -62.131550 -45.674419 146.059982 27.375723 -88.781555 158.773727
66 138.789810 -62.131554 -45.674419 146.059982 27.375723 -88.781555 158.773727
67 138.789810 -62.131554 -45.674419 146.059982 27.375723 -88.781555 158.773727
68 138.789810 -62.131554 -45.674416 146.059982 27.375723 -88.781555 158.773727
[BN_SackDef05]
65 118.879341 46.280830 -63.883625 0.155741 51.314110 90.605110 142.672104
66 118.864479 46.261890 -63.874886 0.155741 51.314110 90.605110 142.649673
67 118.849609 46.242950 -63.866154 0.155741 51.314110 90.605110 142.627228
68 118.834747 46.224007 -63.857414 0.155741 51.314110 90.605110 142.604782
[BN_SackDef06]
65 118.879410 46.280910 63.883617 152.058487 -51.314072 90.605019 142.672195
66 118.864540 46.261971 63.874878 152.058487 -51.314072 90.605019 142.649750
67 118.849686 46.243031 63.866146 152.058487 -51.314072 90.605019 142.627319
68 118.834824 46.224094 63.857407 152.058487 -51.314072 90.605019 142.604874
